#!OML:ASF F:\VICON\USERDATA\Patient Classification 1\PLAYGROUND\JustinFriday\JustinFriday.ASF
:FULLY-SPECIFIED
:DEGREES
212
root 15.6704 15.3183 11.9318 -6.7932 -168.887 6.4627
lowerback 30.8582 -0.530117 -1.75013
upperback 6.16924 -2.48938 3.09627
thorax -9.74629 -1.74948 5.61541
lowerneck -6.27582 -3.58398 -7.5058
upperneck 4.9654 -4.93682 10.4854
head 2.94885 -2.27824 4.17657
rclavicle -2.59414e-014 5.56597e-015
rhumerus 65.2383 2.86952 -75.6428
rradius 66.0052
rwrist 24.358
rhand -10.4699 -27.7131
rfingers 7.12502
rthumb 15.5311 -57.1094
lclavicle -2.59414e-014 5.56597e-015
lhumerus 67.1332 0.749126 66.5285
lradius 56.563
lwrist -19.6868
lhand -8.95651 -2.37149
lfingers 7.12502
lthumb 16.9883 26.9056
rfemur -41.1891 -7.03483 37.2957
rtibia 71.4948
rfoot -21.7895 -10.2716
rtoes 23.9495
lfemur -50.3018 13.7389 -6.87863
ltibia 96.4821
lfoot -11.5273 6.3384
ltoes -3.8331
213
root 15.6365 15.1825 11.8431 -7.3662 -169.38 6.62872
lowerback 30.8056 -0.497379 -1.62517
upperback 6.51143 -2.5106 3.01806
thorax -9.33415 -1.81939 5.44144
lowerneck -6.4452 -3.5719 -7.68255
upperneck 5.22946 -4.92685 10.6133
head 3.06211 -2.26523 4.24278
rclavicle -5.10877e-014 2.66371e-014
rhumerus 65.8672 2.75811 -75.2995
rradius 65.951
rwrist 23.7305
rhand -9.79918 -27.6026
rfingers 7.12502
rthumb 16.177 -56.9476
lclavicle -5.10877e-014 2.66371e-014
lhumerus 67.8207 1.24115 67.8824
lradius 57.4341
lwrist -21.2059
lhand -7.47686 -2.30888
lfingers 7.12502
lthumb 18.4121 26.8397
rfemur -41.2696 -7.21337 37.6589
rtibia 73.3126
rfoot -22.4634 -10.4405
rtoes 23.9598
lfemur -51.9504 13.0481 -6.67717
ltibia 95.769
lfoot -11.7886 7.08259
ltoes -5.03882
214
root 15.6082 15.0592 11.7558 -7.95839 -169.882 6.77424
lowerback 30.9274 -0.452173 -1.50786
upperback 6.75354 -2.50499 2.91469
thorax -9.12532 -1.86117 5.2499
lowerneck -6.44548 -3.50515 -7.8531
upperneck 5.43508 -4.84807 10.7216
head 3.12261 -2.2244 4.30876
rclavicle 2.78299e-015 2.26615e-014
rhumerus 66.4342 2.65409 -75.1828
rradius 65.7644
rwrist 23.908
rhand -9.77759 -27.758
rfingers 7.12502
rthumb 16.1978 -57.1012
lclavicle 2.78299e-015 2.26615e-014
lhumerus 68.1205 1.65582 68.1487
lradius 57.9736
lwrist -22.0424
lhand -6.70292 -2.33912
lfingers 7.12502
lthumb 19.1565 26.7374
rfemur -41.301 -7.40407 37.9809
rtibia 75.1326
rfoot -23.398 -10.0761
rtoes 25.9136
lfemur -53.3879 12.4337 -6.55006
ltibia 94.6406
lfoot -11.4428 7.85145
ltoes -7.84081
215
root 15.5843 14.9579 11.6666 -8.43953 -170.118 6.61181
lowerback 30.9614 -0.426876 -1.62747
upperback 6.96218 -2.58411 2.76397
thorax -8.89887 -1.92958 5.16908
lowerneck -6.31764 -3.42301 -7.94879
upperneck 5.42018 -4.72363 10.6364
head 3.08499 -2.16968 4.30719
rclavicle -9.93923e-015 2.42517e-014
rhumerus 67.0816 2.62918 -76.5544
rradius 66.6667
rwrist 25.7694
rhand -8.04786 -28.0209
rfingers 7.12502
rthumb 17.8628 -57.2206
lclavicle -9.93923e-015 2.42517e-014
lhumerus 68.346 1.9907 68.3761
lradius 58.4048
lwrist -22.6901
lhand -6.41032 -2.6291
lfingers 7.12502
lthumb 19.4379 26.4193
rfemur -41.5541 -7.75464 37.8754
rtibia 77.0778
rfoot -24.0455 -9.47744
rtoes 27.788
lfemur -54.6812 11.4804 -6.7166
ltibia 93.0849
lfoot -11.5621 8.22569
ltoes -7.87138
216
root 15.5592 14.8603 11.5686 -8.99807 -170.544 6.67233
lowerback 30.9729 -0.339223 -1.57221
upperback 7.14639 -2.51826 2.70237
thorax -8.70497 -1.93186 5.03536
lowerneck -5.79563 -3.38585 -7.95019
upperneck 5.1425 -4.67098 10.5083
head 2.9075 -2.16381 4.27839
rclavicle -2.18663e-015 -1.59028e-015
rhumerus 67.1243 2.27141 -75.1684
rradius 65.9367
rwrist 24.9488
rhand -8.97457 -28.2814
rfingers 7.12502
rthumb 16.9709 -57.56
lclavicle -2.18663e-015 -1.59028e-015
lhumerus 68.3481 2.20754 68.3073
lradius 58.8332
lwrist -22.5718
lhand -6.62006 -2.93285
lfingers 7.12502
lthumb 19.2362 26.1358
rfemur -41.7805 -7.94761 38.0505
rtibia 79.1236
rfoot -23.9727 -9.46032
rtoes 26.6058
lfemur -55.759 10.8582 -6.47352
ltibia 91.2477
lfoot -11.8205 8.02443
ltoes -6.96501
217
root 15.5299 14.7551 11.4653 -9.7175 -171.267 6.66774
lowerback 31.1066 -0.0477801 -1.65903
upperback 7.36459 -2.25369 2.68025
thorax -8.54155 -1.84681 4.96401
lowerneck -5.26932 -3.39543 -8.07126
upperneck 4.96733 -4.69461 10.5203
head 2.77336 -2.19344 4.30877
rclavicle 1.23246e-014 -1.86858e-014
rhumerus 67.2488 1.99339 -74.4445
rradius 65.7259
rwrist 24.1481
rhand -9.837 -28.909
rfingers 7.12502
rthumb 16.1406 -58.2569
lclavicle 1.23246e-014 -1.86858e-014
lhumerus 68.3369 2.29036 68.2625
lradius 59.3972
lwrist -22.2822
lhand -6.63604 -2.9154
lfingers 7.12502
lthumb 19.2208 26.1548
rfemur -41.9281 -7.95021 38.209
rtibia 81.3357
rfoot -23.5165 -9.60162
rtoes 24.2054
lfemur -56.3683 10.604 -6.26022
ltibia 89.1495
lfoot -11.7571 7.79068
ltoes -6.39148
218
root 15.4964 14.6429 11.3547 -10.4936 -171.866 6.38479
lowerback 31.012 0.25919 -1.9329
upperback 7.8145 -2.08477 2.5673
thorax -7.99606 -1.83863 4.91033
lowerneck -5.33078 -3.40412 -8.18082
upperneck 5.0292 -4.69304 10.4948
head 2.80365 -2.19175 4.31815
rclavicle 1.94809e-014 -3.69739e-014
rhumerus 67.7703 1.74315 -74.4413
rradius 65.7287
rwrist 24.12
rhand -9.06834 -29.5101
rfingers 7.12502
rthumb 16.8806 -58.7964
lclavicle 1.94809e-014 -3.69739e-014
lhumerus 68.6658 2.41153 68.2594
lradius 59.9414
lwrist -22.2218
lhand -6.69102 -2.61517
lfingers 7.12502
lthumb 19.168 26.4603
rfemur -42.2235 -8.08235 37.987
rtibia 83.7812
rfoot -22.6882 -9.48917
rtoes 23.3177
lfemur -56.724 10.155 -6.41244
ltibia 86.8389
lfoot -11.7352 7.83742
ltoes -7.22276
219
root 15.4607 14.53 11.2377 -11.4013 -172.307 6.55448
lowerback 31.4846 0.297912 -1.68401
upperback 7.9132 -2.03832 2.49067
thorax -8.12019 -1.84594 4.68527
lowerneck -5.16766 -3.31458 -8.05347
upperneck 5.26939 -4.5957 10.2729
head 2.83003 -2.15034 4.23535
rclavicle -2.8625e-014 -1.19271e-015
rhumerus 67.7926 1.75741 -74.7297
rradius 65.7881
rwrist 24.0584
rhand -7.6883 -29.5983
rfingers 7.12502
rthumb 18.2087 -58.766
lclavicle -2.8625e-014 -1.19271e-015
lhumerus 68.6513 2.37921 68.3855
lradius 60.0327
lwrist -22.54
lhand -7.01052 -2.76607
lfingers 7.12502
lthumb 18.8607 26.3395
rfemur -42.6293 -8.3383 38.1818
rtibia 86.3268
rfoot -21.1485 -9.51707
rtoes 23.1103
lfemur -57.0639 9.70035 -6.14874
ltibia 84.3457
lfoot -11.6561 7.60038
ltoes -10.9038
220
root 15.4293 14.4222 11.1215 -12.3568 -172.66 6.85101
lowerback 31.8741 0.275224 -1.25901
upperback 8.08237 -2.02838 2.4303
thorax -8.12306 -1.88379 4.38133
lowerneck -5.14848 -3.259 -8.02909
upperneck 5.67002 -4.5615 10.2669
head 2.94151 -2.13309 4.23075
rclavicle -1.05356e-014 3.45885e-014
rhumerus 67.8275 1.66581 -74.9998
rradius 65.8398
rwrist 23.8311
rhand -7.62329 -28.3328
rfingers 7.12502
rthumb 18.2713 -57.4947
lclavicle -1.05356e-014 3.45885e-014
lhumerus 68.7884 2.33733 68.7416
lradius 60.0507
lwrist -23.1308
lhand -7.21043 -3.21729
lfingers 7.12502
lthumb 18.6684 25.9069
rfemur -43.2809 -8.66049 38.5337
rtibia 88.9071
rfoot -18.8193 -9.7884
rtoes 23.0136
lfemur -57.2554 9.26794 -5.76282
ltibia 81.581
lfoot -11.4766 6.93704
ltoes -14.6938
221
root 15.4001 14.3254 11.0031 -13.3452 -173.071 6.79513
lowerback 32.4754 0.392443 -1.13887
upperback 7.88519 -1.95422 2.43402
thorax -7.92915 -1.91521 4.00142
lowerneck -5.10146 -3.34782 -8.15211
upperneck 6.12484 -4.73369 10.4145
head 3.09104 -2.21804 4.28778
rclavicle -3.27995e-014 4.81059e-014
rhumerus 67.8398 1.4268 -75.2339
rradius 65.8991
rwrist 23.8673
rhand -8.0652 -26.9761
rfingers 7.12502
rthumb 17.8461 -56.1772
lclavicle -3.27995e-014 4.81059e-014
lhumerus 68.9677 2.24754 68.8815
lradius 60.2014
lwrist -23.2703
lhand -7.05845 -3.17808
lfingers 7.12502
lthumb 18.8146 25.932
rfemur -43.996 -8.95065 38.5016
rtibia 91.5045
rfoot -16.1782 -10.0386
rtoes 23.5829
lfemur -56.9783 8.60348 -5.57493
ltibia 78.5287
lfoot -11.2683 6.26295
ltoes -16.5463
222
root 15.3663 14.244 10.881 -14.3662 -173.574 6.78949
lowerback 32.764 0.547424 -0.923157
upperback 8.08488 -1.78919 2.34998
thorax -7.83822 -1.88188 3.74353
lowerneck -4.84838 -3.49804 -8.33019
upperneck 6.31563 -4.97117 10.5188
head 3.13493 -2.34423 4.34043
rclavicle -2.18663e-015 -2.62396e-014
rhumerus 67.8173 1.25183 -75.4638
rradius 66.1133
rwrist 23.6858
rhand -7.36709 -27.0115
rfingers 7.12502
rthumb 18.5177 -56.1501
lclavicle -2.18663e-015 -2.62396e-014
lhumerus 69.3166 2.08961 69.0622
lradius 60.07
lwrist -23.1889
lhand -6.62899 -3.02267
lfingers 7.12502
lthumb 19.2276 26.0468
rfemur -44.6415 -9.25941 38.4724
rtibia 94.0555
rfoot -13.177 -10.4982
rtoes 23.1287
lfemur -56.3749 7.80252 -5.19739
ltibia 75.2274
lfoot -10.9737 5.57014
ltoes -18.0036
223
root 15.332 14.1518 10.7509 -15.3255 -174.12 6.9983
lowerback 32.91 0.649254 -0.492576
upperback 8.27809 -1.60625 2.32723
thorax -7.69844 -1.83872 3.42457
lowerneck -4.63182 -3.5619 -8.41803
upperneck 6.4805 -5.08786 10.543
head 3.16167 -2.41043 4.35935
rclavicle 5.24792e-014 -5.12864e-014
rhumerus 67.8606 1.20602 -75.8697
rradius 66.3986
rwrist 23.6301
rhand -6.55866 -27.8085
rfingers 7.12502
rthumb 19.2952 -56.8712
lclavicle 5.24792e-014 -5.12864e-014
lhumerus 69.6883 1.87544 69.4518
lradius 59.7763
lwrist -23.3559
lhand -6.24138 -3.01007
lfingers 7.12502
lthumb 19.6003 26.0219
rfemur -45.5769 -9.65374 38.747
rtibia 96.6332
rfoot -9.42366 -11.2194
rtoes 23.1244
lfemur -55.7625 7.26955 -4.60963
ltibia 71.7578
lfoot -10.5328 4.72181
ltoes -20.8578
224
root 15.3 14.0395 10.6086 -16.2513 -174.521 6.88692
lowerback 32.839 0.83867 -0.457589
upperback 8.57421 -1.45406 2.28916
thorax -7.35701 -1.81451 3.30246
lowerneck -4.33738 -3.57759 -8.50628
upperneck 6.41947 -5.1238 10.5736
head 3.10073 -2.43917 4.38639
rclavicle -4.37326e-015 -1.47101e-014
rhumerus 68.1297 1.12791 -76.1644
rradius 66.5703
rwrist 23.883
rhand -6.38719 -28.4243
rfingers 7.12502
rthumb 19.4601 -57.4704
lclavicle -4.37326e-015 -1.47101e-014
lhumerus 70.0048 1.6971 69.8337
lradius 59.5741
lwrist -23.6785
lhand -5.85596 -2.73126
lfingers 7.12502
lthumb 19.9708 26.2625
rfemur -46.7943 -10.1465 38.6933
rtibia 99.3489
rfoot -5.58615 -11.9589
rtoes 26.3863
lfemur -55.0251 6.69678 -4.35332
ltibia 68.1447
lfoot -10.1984 3.8765
ltoes -24.2541
225
root 15.2695 13.9284 10.4594 -17.1658 -174.749 6.43247
lowerback 32.327 1.10801 -0.798173
upperback 9.3158 -1.31569 2.11575
thorax -6.98956 -1.78051 3.47575
lowerneck -4.17813 -3.59417 -8.93169
upperneck 6.55852 -5.16022 10.7812
head 3.13481 -2.46545 4.52194
rclavicle -4.37326e-015 -6.36111e-015
rhumerus 68.3309 0.962299 -76.1245
rradius 66.6109
rwrist 23.9447
rhand -6.28759 -28.5422
rfingers 7.12502
rthumb 19.5559 -57.5787
lclavicle -4.37326e-015 -6.36111e-015
lhumerus 70.2374 1.54993 70.2531
lradius 59.5283
lwrist -24.0506
lhand -5.1028 -2.33346
lfingers 7.12502
lthumb 20.6946 26.5832
rfemur -48.0252 -10.7785 38.166
rtibia 102.088
rfoot -1.92112 -12.6164
rtoes 28.5084
lfemur -54.1163 5.92118 -4.43707
ltibia 64.4004
lfoot -9.81117 3.16855
ltoes -26.7335
226
root 15.2372 13.809 10.3013 -18.0265 -175.061 6.22417
lowerback 32.1563 1.28438 -0.821545
upperback 9.48315 -1.14784 2.08293
thorax -6.73162 -1.72754 3.37876
lowerneck -4.02694 -3.5685 -9.32214
upperneck 6.985 -5.16681 10.9052
head 3.24929 -2.48026 4.62712
rclavicle -5.76476e-015 -1.19271e-015
rhumerus 68.2521 0.82827 -76.2296
rradius 66.592
rwrist 24.0534
rhand -5.90331 -28.5108
rfingers 7.12502
rthumb 19.9253 -57.5093
lclavicle -5.76476e-015 -1.19271e-015
lhumerus 70.2965 1.29356 70.6824
lradius 59.4761
lwrist -24.3363
lhand -4.40218 -2.13314
lfingers 7.12502
lthumb 21.3677 26.7087
rfemur -49.3616 -11.4078 38.0007
rtibia 104.751
rfoot 1.38643 -13.2036
rtoes 28.2123
lfemur -53.1942 5.36252 -4.24005
ltibia 60.5705
lfoot -9.17731 2.43077
ltoes -28.3181
